<?xml version="1.0" standalone="no"?>
<!DOCTYPE svg PUBLIC "-//W3C//DTD SVG 20010904//EN"
 "http://www.w3.org/TR/2001/REC-SVG-20010904/DTD/svg10.dtd">
<svg version="1.0" xmlns="http://www.w3.org/2000/svg"
 width="128.000000pt" height="128.000000pt" viewBox="0 0 128.000000 128.000000"
 preserveAspectRatio="xMidYMid meet">
<metadata>
Created by potrace 1.11, written by Peter Selinger 2001-2013
</metadata>
<g transform="translate(0.000000,128.000000) scale(0.100000,-0.100000)"
fill="#000000" stroke="none">
<path d="M1125 1260 c-15 -16 -16 -22 -5 -35 12 -14 15 -13 31 11 28 42 7 61
-26 24z"/>
<path d="M344 1250 c3 -14 6 -28 6 -32 0 -11 30 -10 30 1 0 5 -9 19 -21 32
l-21 24 6 -25z"/>
<path d="M537 1241 c-21 -36 -21 -41 -2 -41 8 0 17 11 21 25 10 39 0 48 -19
16z"/>
<path d="M150 1241 c0 -22 25 -39 38 -27 8 8 -10 38 -26 44 -7 2 -12 -6 -12
-17z"/>
<path d="M281 1228 c-9 -24 -8 -34 1 -41 9 -6 4 -7 -12 -3 -55 14 -157 19
-164 8 -4 -6 -9 -41 -13 -77 -5 -50 -2 -74 11 -104 14 -30 16 -53 12 -107 -8
-80 -8 -137 -2 -254 3 -54 -1 -107 -10 -146 -11 -49 -12 -75 -3 -130 13 -80
13 -83 -1 -193 -8 -66 -7 -87 3 -93 6 -5 45 -7 85 -6 60 3 73 1 77 -13 3 -10
12 -23 20 -29 13 -11 15 -7 15 19 0 21 -5 31 -16 31 -8 0 -12 5 -9 10 9 14
142 13 151 -1 4 -8 26 -9 68 -4 112 13 210 12 264 -2 41 -12 71 -13 130 -5 42
5 125 7 183 5 l106 -5 6 73 c5 57 2 82 -11 113 -20 47 -21 125 -3 178 9 28 10
49 1 90 -14 61 -14 77 -4 173 4 39 8 115 8 170 l1 100 35 -3 35 -3 -25 15
c-14 9 -33 15 -42 16 -15 0 -16 4 -8 26 6 14 10 54 10 89 l0 64 -35 6 c-19 3
-50 7 -68 10 -21 3 -46 -2 -72 -15 -44 -22 -140 -25 -190 -4 -22 9 -42 10 -75
2 -51 -12 -96 -12 -190 -3 -36 4 -106 8 -155 8 l-91 1 4 27 c6 39 -14 44 -27
7z m-22 -106 c10 -15 72 -32 120 -32 25 0 52 -4 60 -9 20 -13 6 -41 -21 -41
-64 -1 -61 -42 4 -58 24 -6 54 -21 68 -34 l25 -23 -34 -3 c-18 -2 -38 1 -44 7
-15 15 -47 14 -47 -1 0 -7 23 -34 50 -59 28 -25 50 -51 50 -57 0 -13 -56 -17
-62 -4 -6 14 -91 71 -99 66 -4 -2 -1 -20 7 -39 8 -19 14 -48 14 -65 0 -27 -3
-31 -22 -28 -28 4 -48 41 -48 89 0 20 -6 42 -14 48 -11 9 -14 4 -19 -25 -7
-41 -23 -64 -45 -64 -11 0 -13 8 -8 38 19 112 19 117 -6 147 -26 32 -48 96
-48 140 0 28 0 28 57 22 31 -3 59 -10 62 -15z m295 -24 c11 -11 11 -16 -1 -34
-12 -19 -17 -20 -38 -10 -25 11 -33 26 -15 26 6 0 10 7 10 15 0 18 26 20 44 3z
m123 -129 c2 -16 -1 -18 -11 -10 -7 6 -16 8 -19 4 -4 -3 -7 1 -7 10 0 25 35
21 37 -4z m25 -66 c60 -18 63 -20 50 -40 -6 -10 -16 -10 -45 -1 -30 9 -40 9
-54 -4 -10 -9 -28 -19 -40 -22 -19 -6 -23 -4 -23 14 0 20 -4 22 -35 16 -27 -5
-37 -3 -41 9 -8 21 -4 24 47 34 66 13 78 13 141 -6z m389 -106 c-6 -8 -8 -17
-4 -20 3 -4 -4 -7 -17 -7 -13 0 -20 3 -17 7 4 3 2 12 -4 20 -9 10 -5 13 21 13
26 0 30 -3 21 -13z m-835 -122 c9 -8 11 -15 5 -15 -5 0 -13 -9 -16 -20 -6 -18
-8 -18 -21 -5 -9 8 -19 13 -24 10 -4 -3 -3 6 3 20 14 28 32 32 53 10z m738
-10 c17 -13 18 -15 3 -15 -11 0 -17 -8 -17 -22 l0 -22 -20 22 c-39 42 -11 71
34 37z m-621 -121 c-3 -7 -10 -12 -16 -11 -18 3 -27 21 -15 28 17 11 38 -1 31
-17z m384 -90 c5 -15 -48 -41 -98 -49 -34 -5 -55 -3 -78 9 -17 9 -31 18 -31
20 0 3 30 4 68 3 50 -2 73 2 92 16 25 18 41 18 47 1z m11 -111 c11 -11 11 -14
-2 -19 -9 -3 -16 -12 -16 -19 0 -10 -5 -11 -23 -2 -20 9 -22 14 -13 32 11 25
34 28 54 8z m-40 -147 c-3 -15 -5 -15 -27 0 -23 17 -23 18 -5 25 23 8 37 -3
32 -25z"/>
<path d="M680 1233 c0 -27 4 -33 20 -33 17 0 19 3 11 18 -27 46 -31 48 -31 15z"/>
<path d="M950 1225 c0 -28 4 -35 20 -35 24 0 24 3 5 40 -20 39 -25 38 -25 -5z"/>
<path d="M602 1230 c1 -13 9 -25 16 -28 17 -5 15 23 -4 39 -14 11 -15 10 -12
-11z"/>
<path d="M852 1227 c-23 -25 -20 -37 9 -37 17 0 29 19 29 46 0 20 -13 17 -38
-9z"/>
<path d="M20 1162 c0 -5 9 -17 19 -26 18 -17 20 -17 30 2 9 17 7 21 -12 26
-30 8 -37 7 -37 -2z"/>
<path d="M1190 1116 c0 -26 21 -29 43 -7 l21 21 -32 0 c-21 0 -32 -5 -32 -14z"/>
<path d="M59 980 l-24 -20 30 2 c19 2 31 9 33 21 5 23 -10 22 -39 -3z"/>
<path d="M1197 933 c-10 -9 -8 -33 2 -33 5 0 19 9 32 20 l24 19 -26 1 c-14 0
-29 -3 -32 -7z"/>
<path d="M50 887 c0 -17 20 -37 37 -37 7 0 13 11 13 25 0 20 -5 25 -25 25 -14
0 -25 -6 -25 -13z"/>
<path d="M1180 746 c0 -13 58 -31 68 -22 4 4 -51 36 -63 36 -3 0 -5 -6 -5 -14z"/>
<path d="M55 710 l-30 -20 32 0 c33 0 52 15 36 31 -5 5 -21 0 -38 -11z"/>
<path d="M1196 682 c-3 -3 -6 -11 -6 -19 0 -17 24 -17 39 1 9 11 7 15 -8 19
-11 3 -22 2 -25 -1z"/>
<path d="M63 633 c-20 -8 -15 -23 7 -23 11 0 20 7 20 15 0 15 -6 17 -27 8z"/>
<path d="M1180 593 c1 -25 17 -29 45 -12 l30 19 -37 0 c-21 0 -38 -3 -38 -7z"/>
<path d="M38 558 c16 -20 50 -29 58 -16 8 13 3 17 -37 25 -30 6 -32 5 -21 -9z"/>
<path d="M1174 425 c-8 -21 4 -35 32 -35 29 0 31 11 6 33 -23 21 -31 21 -38 2z"/>
<path d="M40 369 l-25 -21 25 6 c14 3 28 6 33 6 4 0 7 7 7 15 0 20 -10 19 -40
-6z"/>
<path d="M1182 318 c-17 -17 -15 -28 6 -28 18 1 52 22 52 34 0 11 -46 6 -58
-6z"/>
<path d="M36 301 c5 -4 21 -11 37 -15 20 -5 27 -3 27 9 0 11 -11 15 -37 15
-22 0 -33 -4 -27 -9z"/>
<path d="M45 180 c-18 -19 -17 -20 8 -20 17 0 27 5 27 14 0 24 -16 27 -35 6z"/>
<path d="M1206 154 c-8 -22 -9 -21 24 -33 40 -13 39 5 -1 37 -14 10 -18 10
-23 -4z"/>
<path d="M370 58 l0 -31 25 23 c14 13 25 27 25 32 0 4 -11 8 -25 8 -21 0 -25
-5 -25 -32z"/>
<path d="M620 78 c1 -18 26 -49 33 -41 13 12 7 32 -13 43 -15 8 -20 8 -20 -2z"/>
<path d="M707 83 c-4 -3 -7 -20 -7 -37 l0 -31 19 30 c18 29 18 45 2 45 -4 0
-11 -3 -14 -7z"/>
<path d="M947 83 c-2 -5 -1 -21 3 -38 l6 -30 17 31 c9 17 13 34 10 38 -9 8
-31 8 -36 -1z"/>
<path d="M547 53 c9 -16 18 -30 20 -32 2 -2 3 10 3 27 0 25 -4 32 -20 32 -20
0 -20 -1 -3 -27z"/>
<path d="M101 38 c-14 -41 -9 -44 23 -16 26 22 26 23 7 35 -17 11 -21 9 -30
-19z"/>
<path d="M885 39 c19 -35 30 -32 21 6 -4 14 -13 25 -21 25 -14 0 -14 -4 0 -31z"/>
<path d="M1067 64 c-8 -9 11 -44 23 -44 6 0 10 11 10 25 0 23 -18 34 -33 19z"/>
</g>
</svg>
